<svg version="1.1" id="Layer_1" xmlns="http://www.w3.org/2000/svg" xmlns:xlink="http://www.w3.org/1999/xlink" x="0px" y="0px"
	 width="196.3px" height="42.8px" viewBox="0 0 196.3 42.8" style="enable-background:new 0 0 196.3 42.8;" xml:space="preserve">
<style type="text/css">
	.st0{fill:#FFFFFF;}
</style>
<g>
	<rect x="54.9" y="21.7" class="st0 hide" width="1.1" height="15.1"/>
	<rect x="54.9" y="15.5" class="st0 hide" width="1.1" height="2.1"/>
	<path class="st0 hide" d="M64.7,21.6c-2.1,0-3.9,1.2-4.8,3v-2.9h-1.1l0,0.3c0.1,1.6,0.1,3.1,0.1,4.2v10.7h1.1v-7.7c0-0.7,0-1.5,0.1-2.1
		c0.6-2.8,2.3-4.3,4.7-4.3c3.2,0,3.9,2.2,3.9,5.4v8.8h1.1v-9.5C69.7,23.5,68,21.6,64.7,21.6z"/>
	<polygon class="st0 hide" points="82.2,21.7 76.8,35.1 71.3,21.7 70.2,21.7 76.4,36.9 77.1,36.9 83.4,21.7 	"/>
	<path class="st0 hide" d="M89.3,21.5c-4.7,0-6.4,4.3-6.4,8c0,4.8,2.4,7.6,6.3,7.6c2.9,0,4.8-1.5,5.5-4.7l0.1-0.3h-1.1l-0.1,0.2
		c-0.8,2.7-2.1,3.8-4.5,3.8c-3.8,0-5.2-3.4-5.2-6.4v-0.2h10.9v-1.1C94.9,25.1,93.4,21.5,89.3,21.5z M93.8,28.4H84
		c0.3-2.3,1.4-5.8,5.3-5.8c3.7,0,4.4,3.5,4.5,5.6C93.8,28.2,93.8,28.3,93.8,28.4z"/>
	<path class="st0 hide" d="M101.2,28.7c-2-0.6-4-1.1-4-3.2c0-2.2,2-3,3.7-3c1.6,0,3.5,0.6,3.5,3.2V26h1.1v-0.2c0-2.8-1.7-4.3-4.6-4.3
		c-2.3,0-4.8,1.3-4.8,4.1c0,2.9,2.5,3.6,4.8,4.2c2,0.6,3.8,1,3.8,2.9c0,3.2-3.1,3.4-4,3.4c-2.5,0-3.8-1.2-3.8-3.5l0-0.2h-1.1v0.2
		c0,2.9,1.8,4.6,4.9,4.6c3.1,0,5.1-1.8,5.1-4.5C105.8,30,103.4,29.3,101.2,28.7z"/>
	<path class="st0 hide" d="M112.4,35.8c-0.2,0-0.5,0.1-0.8,0.1c-1.5,0-1.8-0.8-1.8-2.4V22.8h3.2v-1.1h-3.2v-3.8l-1.1,0.7v3.2h-3v1.1h3
		v11.1c0,2.5,1.4,3,2.6,3c0.5,0,0.9,0,1.6-0.1l0.2,0v-1l-0.3,0C112.7,35.8,112.6,35.8,112.4,35.8z"/>
	<rect x="114.5" y="21.7" class="st0 hide" width="1.1" height="15.1"/>
	<rect x="114.5" y="15.5" class="st0 hide" width="1.1" height="2.1"/>
	<path class="st0 hide" d="M133.4,21.6c-2.8,0-4.3,1.8-4.8,3.3c-0.5-1.8-2-3.3-4.5-3.3c-2.3,0-3.8,1.3-4.6,2.8v-2.7h-1.1V22
		c0,0.6,0,1.3,0,2.1c0,0.7,0,1.5,0,2.1v10.7h1.1v-8.1c0-0.7,0-1.5,0.2-2.3c0.3-1.1,1.3-3.8,4.3-3.8c3.3,0,3.8,3.2,3.8,5v9.1h1.1
		v-8.4c0-0.9,0.1-1.7,0.2-2.3c0.4-1.6,1.4-3.5,4.2-3.5c2.6,0,3.9,1.6,3.9,4.8v9.4h1.1v-8.7c0-1.2,0-2.7-0.6-4.1
		C136.9,22.5,135.5,21.6,133.4,21.6z"/>
	<path class="st0 hide" d="M146.6,21.5c-4.7,0-6.4,4.3-6.4,8c0,4.8,2.4,7.6,6.3,7.6c2.9,0,4.8-1.5,5.5-4.7l0.1-0.3H151l0,0.2
		c-0.8,2.7-2.1,3.8-4.5,3.8c-3.8,0-5.2-3.4-5.2-6.4v-0.2h10.9v-1.1C152.2,25.1,150.7,21.5,146.6,21.5z M151.1,28.4h-9.8
		c0.3-2.3,1.3-5.8,5.3-5.8c3.7,0,4.4,3.5,4.5,5.6C151.1,28.2,151.1,28.3,151.1,28.4z"/>
	<path class="st0 hide" d="M160,21.6c-2.1,0-3.9,1.2-4.8,3v-2.9h-1.1l0,0.3c0.1,1.6,0.1,3.1,0.1,4.2v10.7h1.1v-7.7c0-0.7,0-1.5,0.1-2.1
		c0.6-2.8,2.3-4.3,4.7-4.3c3.2,0,3.9,2.2,3.9,5.4v8.8h1.1v-9.5C165,23.5,163.3,21.6,160,21.6z"/>
	<path class="st0 hide" d="M172,35.8c-0.2,0-0.5,0.1-0.8,0.1c-1.5,0-1.8-0.8-1.8-2.4V22.8h3.2v-1.1h-3.2v-3.8l-1.1,0.7v3.2h-3v1.1h3v11.1
		c0,2.5,1.4,3,2.6,3c0.5,0,0.9,0,1.6-0.1l0.2,0v-1l-0.3,0C172.4,35.8,172.2,35.8,172,35.8z"/>
	<path class="st0 hide" d="M178.9,21.5c-4.9,0-6.6,4.1-6.6,7.7c0,3.7,1.7,8,6.6,8c4.3,0,6.5-4,6.5-8C185.5,24.5,183,21.5,178.9,21.5z
		 M178.9,36.1c-3.8,0-5.5-3.5-5.5-6.9c0-3.3,1.7-6.6,5.5-6.6c4,0,5.4,3.6,5.4,6.6C184.4,32.5,182.7,36.1,178.9,36.1z"/>
	<path class="st0 hide" d="M191.7,28.7c-2-0.6-4-1.1-4-3.2c0-2.2,2-3,3.7-3c1.6,0,3.5,0.6,3.5,3.2V26h1.1v-0.2c0-2.8-1.7-4.3-4.6-4.3
		c-2.3,0-4.8,1.3-4.8,4.1c0,2.9,2.5,3.6,4.8,4.2c2,0.6,3.8,1,3.8,2.9c0,3.2-3.1,3.4-4,3.4c-2.5,0-3.8-1.2-3.8-3.5l0-0.2h-1.1v0.2
		c0,2.9,1.8,4.6,4.9,4.6c3.1,0,5.1-1.8,5.1-4.5C196.3,30,193.8,29.3,191.7,28.7z"/>
	<path class="st0" d="M40,36.9c-1.2,0-2.4-0.3-3.4-0.8v6.7h5.7c2.9,0,5.2-2.3,5.2-5.2v-5C45.9,35.2,43.2,36.9,40,36.9z"/>
	<path class="st0" d="M30.7,33.4V21c-1.7,2.3-4,5.4-4.6,6.2C26.7,28,28.9,31,30.7,33.4z"/>
	<path class="st0" d="M42.3,0H5.2C2.3,0,0,2.3,0,5.2v32.4c0,2.9,2.3,5.2,5.2,5.2h25.5v-6.2H26c0,0-2.3-3.1-3.3-4.6
		c-1.1,1.5-3.3,4.6-3.3,4.6h-7c0,0,6-8.1,6.9-9.4c-0.9-1.3-6.5-8.9-6.5-8.9h7c0,0,2,2.7,3,4.1c1-1.4,3-4.1,3-4.1h8.2
		c0,0,0.6,1.1,0.8,1.6c1.5-1.2,3.4-1.9,5.3-1.9c3.1,0,5.9,1.7,7.5,4.3V5.2C47.5,2.3,45.2,0,42.3,0z"/>
	<path class="st0" d="M42.9,27.5c0-2.1-1.4-3.8-3.1-3.8c-1.8,0-3.2,1.7-3.2,3.8s1.4,3.8,3.2,3.8C41.5,31.3,42.9,29.6,42.9,27.5z"/>
</g>
</svg>